<?xml version="1.0" encoding="utf-8"?>
<!-- Generator: Adobe Illustrator 19.2.1, SVG Export Plug-In . SVG Version: 6.00 Build 0)  -->
<svg version="1.1" id="Logo_x5F_MasterDynamix" xmlns="http://www.w3.org/2000/svg" xmlns:xlink="http://www.w3.org/1999/xlink"
	 x="0px" y="0px" viewBox="0 0 548 308" style="enable-background:new 0 0 548 308;" xml:space="preserve">
<style type="text/css">
	.st0{fill:url(#Object_1_);}
	.st1{enable-background:new    ;}
	.st2{fill:#292839;}
</style>
<title>Artboard 4</title>
<desc>Created with Sketch.</desc>
<linearGradient id="Object_1_" gradientUnits="userSpaceOnUse" x1="281.2898" y1="0.6849" x2="281.2898" y2="1.4993" gradientTransform="matrix(-345.8193 6.958 -5.4924 -272.9778 97560.0234 -1509.686)">
	<stop  offset="0" style="stop-color:#B4EC51"/>
	<stop  offset="1" style="stop-color:#429321"/>
</linearGradient>
<path id="Object" class="st0" d="M459.7,39.3C470.4,73.5,113.9,281,106.4,262.9c-3.7-8.9,65.3-60.9,56.5-86
	c-5.4-15.4-66.2-0.2-67.4-5.8C92,154.1,449.8,7.6,459.7,39.3z"/>
<g id="Text" transform="translate(34.000000, 145.000000)">
	<g class="st1">
		<path class="st2" d="M22.2-12.6l12.5-15h7V7h-6.4v-25.3L22.2-2.7L9-18.3V7H2.7v-34.6h6.9L22.2-12.6z"/>
		<path class="st2" d="M71.7-20.8c1.8,0,3.4,0.6,4.7,1.9c1.3,1.3,1.9,2.9,1.9,4.7V7H56.6c-1.8,0-3.4-0.6-4.7-1.9S50,2.2,50,0.4
			v-10.5h22v-4.1c0-0.2-0.1-0.3-0.3-0.3H50v-6.3H71.7z M72,0.7v-4.5H56.3v4.1c0,0.2,0.1,0.3,0.3,0.3H72z"/>
		<path class="st2" d="M113.3-14.2v1.2H107v-1.2c0-0.2-0.1-0.3-0.3-0.3h-15c-0.2,0-0.3,0.1-0.3,0.3v3.8c0,0.2,0.1,0.3,0.3,0.3h15
			c1.9,0,3.4,0.6,4.7,1.9c1.3,1.3,1.9,2.9,1.9,4.7v3.8c0,1.8-0.6,3.4-1.9,4.7S108.5,7,106.7,7h-15c-1.8,0-3.4-0.6-4.7-1.9
			S85,2.2,85,0.4v-1.2h6.3v1.2c0,0.2,0.1,0.3,0.3,0.3h15c0.2,0,0.3-0.1,0.3-0.3v-3.8c0-0.2-0.1-0.3-0.3-0.3h-15
			c-1.8,0-3.4-0.6-4.7-1.9S85-8.6,85-10.4v-3.8c0-1.8,0.6-3.4,1.9-4.7c1.3-1.3,2.9-1.9,4.7-1.9h15c1.9,0,3.4,0.6,4.7,1.9
			C112.6-17.6,113.3-16,113.3-14.2z"/>
		<path class="st2" d="M138.3-14.6h-10.8V0.4c0,0.2,0.1,0.3,0.3,0.3h10.5V7h-10.5c-1.9,0-3.4-0.6-4.7-1.9c-1.3-1.3-1.9-2.9-1.9-4.7
			V-30h6.3v9.1h10.8V-14.6z"/>
		<path class="st2" d="M166.7-20.8c1.8,0,3.4,0.6,4.7,1.9c1.3,1.3,1.9,2.9,1.9,4.7v10.5h-22v4.1c0,0.2,0.1,0.3,0.3,0.3h21.6V7h-21.6
			c-1.8,0-3.4-0.6-4.7-1.9c-1.3-1.3-1.9-2.9-1.9-4.7v-14.6c0-1.8,0.6-3.4,1.9-4.7c1.3-1.3,2.9-1.9,4.7-1.9H166.7z M151.3-10.1H167
			v-4.1c0-0.2-0.1-0.3-0.3-0.3h-15c-0.2,0-0.3,0.1-0.3,0.3V-10.1z"/>
		<path class="st2" d="M186.7-20.8h15.5v6.3h-15.5c-0.2,0-0.3,0.1-0.3,0.3V7H180v-21.2c0-1.8,0.6-3.4,1.9-4.7
			C183.3-20.2,184.8-20.8,186.7-20.8z"/>
		<path class="st2" d="M208.7-27.6h27.8c1.9,0,3.4,0.6,4.8,1.9c1.3,1.3,2,2.9,2,4.7V0.3c0,1.9-0.7,3.4-2,4.7
			c-1.3,1.3-2.9,1.9-4.8,1.9h-27.8V-27.6z M236.8,0.3v-21.2c0-0.2-0.1-0.3-0.3-0.3h-21.2c-0.2,0-0.3,0.1-0.3,0.3V0.3
			c0,0.2,0.1,0.3,0.3,0.3h21.2C236.7,0.7,236.8,0.6,236.8,0.3z"/>
		<path class="st2" d="M279.2,11.4c0,1.8-0.6,3.4-1.9,4.7c-1.3,1.3-2.8,1.9-4.7,1.9h-17v-6.3h17c0.2,0,0.3-0.1,0.3-0.3V7h-15.4
			c-1.8,0-3.4-0.6-4.7-1.9s-1.9-2.9-1.9-4.7v-21.1h6.3V0.4c0,0.2,0.1,0.3,0.3,0.3h15.1c0.2,0,0.3-0.1,0.3-0.3v-21.1h6.3V11.4z"/>
		<path class="st2" d="M308.7-20.8c1.8,0,3.4,0.6,4.7,1.9c1.3,1.3,1.9,2.9,1.9,4.7V7h-6.3v-21.2c0-0.2-0.1-0.3-0.3-0.3h-15
			c-0.2,0-0.3,0.1-0.3,0.3V7h-6.3v-27.8H308.7z"/>
		<path class="st2" d="M345-20.8c1.8,0,3.4,0.6,4.7,1.9c1.3,1.3,1.9,2.9,1.9,4.7V7H330c-1.8,0-3.4-0.6-4.7-1.9
			c-1.3-1.3-1.9-2.9-1.9-4.7v-10.5h22v-4.1c0-0.2-0.1-0.3-0.3-0.3h-21.6v-6.3H345z M345.4,0.7v-4.5h-15.7v4.1c0,0.2,0.1,0.3,0.3,0.3
			H345.4z"/>
		<path class="st2" d="M393.5-20.8c1.8,0,3.4,0.6,4.7,1.9c1.3,1.3,1.9,2.9,1.9,4.7V7h-6.2v-21.2c0-0.2-0.1-0.3-0.4-0.3h-10.5
			c-0.2,0-0.3,0.1-0.3,0.3V7h-6.3v-21.2c0-0.2-0.1-0.3-0.3-0.3h-10.5c-0.2,0-0.3,0.1-0.3,0.3V7H359v-27.8H393.5z"/>
		<path class="st2" d="M408.9-30h6.3v6.3h-6.3V-30z M408.9,7v-27.8h6.3V7H408.9z"/>
		<path class="st2" d="M444.6-20.8h6.9v1.6L441.2-7.2l10.3,12.6V7h-6.9l-7.5-9.2L429.6,7h-6.9V5.4L433-7.2l-10.3-12.1v-1.6h6.9
			l7.5,8.8L444.6-20.8z"/>
	</g>
</g>
</svg>
